<?xml version="1.0" encoding="UTF-8" standalone="no"?>
<!DOCTYPE svg PUBLIC "-//W3C//DTD SVG 1.1//EN"
 "http://www.w3.org/Graphics/SVG/1.1/DTD/svg11.dtd">
<!-- Generated by graphviz version 2.44.1 (20200629.0846)
 -->
<!-- Title: dependencies Pages: 1 -->
<svg width="2961pt" height="284pt"
 viewBox="0.00 0.00 2961.00 284.00" xmlns="http://www.w3.org/2000/svg" xmlns:xlink="http://www.w3.org/1999/xlink">
<g id="graph0" class="graph" transform="scale(1 1) rotate(0) translate(4 280)">
<title>dependencies</title>
<polygon fill="white" stroke="transparent" points="-4,4 -4,-280 2957,-280 2957,4 -4,4"/>
<text text-anchor="start" x="1455.51" y="-42.4" font-family="sans-serif" font-weight="bold" font-size="14.00">Legend</text>
<polygon fill="#ffffb3" stroke="transparent" points="1242.5,-10 1242.5,-30 1262.5,-30 1262.5,-10 1242.5,-10"/>
<text text-anchor="start" x="1266.13" y="-15.4" font-family="sans-serif" font-size="14.00"> &#160;Declarations</text>
<polygon fill="#8dd3c7" stroke="transparent" points="1355.5,-10 1355.5,-30 1375.5,-30 1375.5,-10 1355.5,-10"/>
<text text-anchor="start" x="1379.23" y="-15.4" font-family="sans-serif" font-size="14.00"> &#160;Module</text>
<polygon fill="#80b1d3" stroke="transparent" points="1441.5,-10 1441.5,-30 1461.5,-30 1461.5,-10 1441.5,-10"/>
<text text-anchor="start" x="1465.28" y="-15.4" font-family="sans-serif" font-size="14.00"> &#160;Bootstrap</text>
<polygon fill="#fdb462" stroke="transparent" points="1538.5,-10 1538.5,-30 1558.5,-30 1558.5,-10 1538.5,-10"/>
<text text-anchor="start" x="1562.17" y="-15.4" font-family="sans-serif" font-size="14.00"> &#160;Providers</text>
<polygon fill="#fb8072" stroke="transparent" points="1634.5,-10 1634.5,-30 1654.5,-30 1654.5,-10 1634.5,-10"/>
<text text-anchor="start" x="1658.23" y="-15.4" font-family="sans-serif" font-size="14.00"> &#160;Exports</text>
<g id="clust1" class="cluster">
<title>cluster_AppModule</title>
<polygon fill="none" stroke="black" stroke-dasharray="1,5" points="8,-70 8,-268 2945,-268 2945,-70 8,-70"/>
</g>
<g id="clust19" class="cluster">
<title>cluster_AppModule_providers</title>
<polygon fill="none" stroke="black" points="2245,-78 2245,-130 2937,-130 2937,-78 2245,-78"/>
</g>
<g id="clust2" class="cluster">
<title>cluster_AppModule_declarations</title>
<polygon fill="none" stroke="black" points="272,-78 272,-130 2237,-130 2237,-78 272,-78"/>
</g>
<g id="clust18" class="cluster">
<title>cluster_AppModule_bootstrap</title>
<polygon fill="none" stroke="black" points="1347,-208 1347,-260 1471,-260 1471,-208 1347,-208"/>
</g>
<g id="clust16" class="cluster">
<title>cluster_AppModule_imports</title>
<polygon fill="none" stroke="black" points="16,-78 16,-130 264,-130 264,-78 16,-78"/>
</g>
<!-- AppComponent -->
<g id="node1" class="node">
<title>AppComponent</title>
<polygon fill="#ffffb3" stroke="black" points="2228.94,-122 2123.06,-122 2123.06,-86 2228.94,-86 2228.94,-122"/>
<text text-anchor="middle" x="2176" y="-99.8" font-family="Times,serif" font-size="14.00">AppComponent</text>
</g>
<!-- AppModule -->
<g id="node14" class="node">
<title>AppModule</title>
<polygon fill="#8dd3c7" stroke="black" points="1450.66,-187 1447.66,-191 1426.66,-191 1423.66,-187 1367.34,-187 1367.34,-151 1450.66,-151 1450.66,-187"/>
<text text-anchor="middle" x="1409" y="-164.8" font-family="Times,serif" font-size="14.00">AppModule</text>
</g>
<!-- AppComponent&#45;&gt;AppModule -->
<g id="edge1" class="edge">
<title>AppComponent&#45;&gt;AppModule</title>
<path fill="none" stroke="black" d="M2176,-122.11C2176,-141.34 2176,-169 2176,-169 2176,-169 1460.78,-169 1460.78,-169"/>
<polygon fill="black" stroke="black" points="1460.78,-165.5 1450.78,-169 1460.78,-172.5 1460.78,-165.5"/>
</g>
<!-- ArticleDialogComponent -->
<g id="node2" class="node">
<title>ArticleDialogComponent</title>
<polygon fill="#ffffb3" stroke="black" points="2105.3,-122 1946.7,-122 1946.7,-86 2105.3,-86 2105.3,-122"/>
<text text-anchor="middle" x="2026" y="-99.8" font-family="Times,serif" font-size="14.00">ArticleDialogComponent</text>
</g>
<!-- ArticleDialogComponent&#45;&gt;AppModule -->
<g id="edge2" class="edge">
<title>ArticleDialogComponent&#45;&gt;AppModule</title>
<path fill="none" stroke="black" d="M2026,-122.27C2026,-140.56 2026,-166 2026,-166 2026,-166 1460.92,-166 1460.92,-166"/>
<polygon fill="black" stroke="black" points="1460.92,-162.5 1450.92,-166 1460.92,-169.5 1460.92,-162.5"/>
</g>
<!-- EditNewsComponent -->
<g id="node3" class="node">
<title>EditNewsComponent</title>
<polygon fill="#ffffb3" stroke="black" points="1929.04,-122 1792.96,-122 1792.96,-86 1929.04,-86 1929.04,-122"/>
<text text-anchor="middle" x="1861" y="-99.8" font-family="Times,serif" font-size="14.00">EditNewsComponent</text>
</g>
<!-- EditNewsComponent&#45;&gt;AppModule -->
<g id="edge3" class="edge">
<title>EditNewsComponent&#45;&gt;AppModule</title>
<path fill="none" stroke="black" d="M1861,-122.03C1861,-139.06 1861,-162 1861,-162 1861,-162 1460.71,-162 1460.71,-162"/>
<polygon fill="black" stroke="black" points="1460.71,-158.5 1450.71,-162 1460.71,-165.5 1460.71,-158.5"/>
</g>
<!-- HomeComponent -->
<g id="node4" class="node">
<title>HomeComponent</title>
<polygon fill="#ffffb3" stroke="black" points="1774.55,-122 1659.45,-122 1659.45,-86 1774.55,-86 1774.55,-122"/>
<text text-anchor="middle" x="1717" y="-99.8" font-family="Times,serif" font-size="14.00">HomeComponent</text>
</g>
<!-- HomeComponent&#45;&gt;AppModule -->
<g id="edge4" class="edge">
<title>HomeComponent&#45;&gt;AppModule</title>
<path fill="none" stroke="black" d="M1717,-122.01C1717,-138.05 1717,-159 1717,-159 1717,-159 1460.86,-159 1460.86,-159"/>
<polygon fill="black" stroke="black" points="1460.86,-155.5 1450.86,-159 1460.86,-162.5 1460.86,-155.5"/>
</g>
<!-- IndoorDialogComponent -->
<g id="node5" class="node">
<title>IndoorDialogComponent</title>
<polygon fill="#ffffb3" stroke="black" points="1641.26,-122 1484.74,-122 1484.74,-86 1641.26,-86 1641.26,-122"/>
<text text-anchor="middle" x="1563" y="-99.8" font-family="Times,serif" font-size="14.00">IndoorDialogComponent</text>
</g>
<!-- IndoorDialogComponent&#45;&gt;AppModule -->
<g id="edge5" class="edge">
<title>IndoorDialogComponent&#45;&gt;AppModule</title>
<path fill="none" stroke="black" d="M1563,-122.12C1563,-136.78 1563,-155 1563,-155 1563,-155 1460.67,-155 1460.67,-155"/>
<polygon fill="black" stroke="black" points="1460.67,-151.5 1450.67,-155 1460.67,-158.5 1460.67,-151.5"/>
</g>
<!-- LoginComponent -->
<g id="node6" class="node">
<title>LoginComponent</title>
<polygon fill="#ffffb3" stroke="black" points="1466.28,-122 1351.72,-122 1351.72,-86 1466.28,-86 1466.28,-122"/>
<text text-anchor="middle" x="1409" y="-99.8" font-family="Times,serif" font-size="14.00">LoginComponent</text>
</g>
<!-- LoginComponent&#45;&gt;AppModule -->
<g id="edge6" class="edge">
<title>LoginComponent&#45;&gt;AppModule</title>
<path fill="none" stroke="black" d="M1409,-122.11C1409,-122.11 1409,-140.99 1409,-140.99"/>
<polygon fill="black" stroke="black" points="1405.5,-140.99 1409,-150.99 1412.5,-140.99 1405.5,-140.99"/>
</g>
<!-- NavbarComponent -->
<g id="node7" class="node">
<title>NavbarComponent</title>
<polygon fill="#ffffb3" stroke="black" points="1333.03,-122 1210.97,-122 1210.97,-86 1333.03,-86 1333.03,-122"/>
<text text-anchor="middle" x="1272" y="-99.8" font-family="Times,serif" font-size="14.00">NavbarComponent</text>
</g>
<!-- NavbarComponent&#45;&gt;AppModule -->
<g id="edge7" class="edge">
<title>NavbarComponent&#45;&gt;AppModule</title>
<path fill="none" stroke="black" d="M1272,-122.12C1272,-136.78 1272,-155 1272,-155 1272,-155 1357.15,-155 1357.15,-155"/>
<polygon fill="black" stroke="black" points="1357.15,-158.5 1367.15,-155 1357.15,-151.5 1357.15,-158.5"/>
</g>
<!-- NavigationComponent -->
<g id="node8" class="node">
<title>NavigationComponent</title>
<polygon fill="#ffffb3" stroke="black" points="1192.54,-122 1049.46,-122 1049.46,-86 1192.54,-86 1192.54,-122"/>
<text text-anchor="middle" x="1121" y="-99.8" font-family="Times,serif" font-size="14.00">NavigationComponent</text>
</g>
<!-- NavigationComponent&#45;&gt;AppModule -->
<g id="edge8" class="edge">
<title>NavigationComponent&#45;&gt;AppModule</title>
<path fill="none" stroke="black" d="M1121,-122.01C1121,-138.05 1121,-159 1121,-159 1121,-159 1357.12,-159 1357.12,-159"/>
<polygon fill="black" stroke="black" points="1357.12,-162.5 1367.12,-159 1357.12,-155.5 1357.12,-162.5"/>
</g>
<!-- NewsComponent -->
<g id="node9" class="node">
<title>NewsComponent</title>
<polygon fill="#ffffb3" stroke="black" points="1031.7,-122 918.3,-122 918.3,-86 1031.7,-86 1031.7,-122"/>
<text text-anchor="middle" x="975" y="-99.8" font-family="Times,serif" font-size="14.00">NewsComponent</text>
</g>
<!-- NewsComponent&#45;&gt;AppModule -->
<g id="edge9" class="edge">
<title>NewsComponent&#45;&gt;AppModule</title>
<path fill="none" stroke="black" d="M975,-122.03C975,-139.06 975,-162 975,-162 975,-162 1356.99,-162 1356.99,-162"/>
<polygon fill="black" stroke="black" points="1356.99,-165.5 1366.99,-162 1356.99,-158.5 1356.99,-165.5"/>
</g>
<!-- RoomsComponent -->
<g id="node10" class="node">
<title>RoomsComponent</title>
<polygon fill="#ffffb3" stroke="black" points="900.5,-122 779.5,-122 779.5,-86 900.5,-86 900.5,-122"/>
<text text-anchor="middle" x="840" y="-99.8" font-family="Times,serif" font-size="14.00">RoomsComponent</text>
</g>
<!-- RoomsComponent&#45;&gt;AppModule -->
<g id="edge10" class="edge">
<title>RoomsComponent&#45;&gt;AppModule</title>
<path fill="none" stroke="black" d="M840,-122.27C840,-140.56 840,-166 840,-166 840,-166 1357.16,-166 1357.16,-166"/>
<polygon fill="black" stroke="black" points="1357.16,-169.5 1367.16,-166 1357.16,-162.5 1357.16,-169.5"/>
</g>
<!-- SelectLanguageComponent -->
<g id="node11" class="node">
<title>SelectLanguageComponent</title>
<polygon fill="#ffffb3" stroke="black" points="761.24,-122 590.76,-122 590.76,-86 761.24,-86 761.24,-122"/>
<text text-anchor="middle" x="676" y="-99.8" font-family="Times,serif" font-size="14.00">SelectLanguageComponent</text>
</g>
<!-- SelectLanguageComponent&#45;&gt;AppModule -->
<g id="edge11" class="edge">
<title>SelectLanguageComponent&#45;&gt;AppModule</title>
<path fill="none" stroke="black" d="M676,-122.11C676,-141.34 676,-169 676,-169 676,-169 1357.22,-169 1357.22,-169"/>
<polygon fill="black" stroke="black" points="1357.22,-172.5 1367.22,-169 1357.22,-165.5 1357.22,-172.5"/>
</g>
<!-- SignupComponent -->
<g id="node12" class="node">
<title>SignupComponent</title>
<polygon fill="#ffffb3" stroke="black" points="572.51,-122 451.49,-122 451.49,-86 572.51,-86 572.51,-122"/>
<text text-anchor="middle" x="512" y="-99.8" font-family="Times,serif" font-size="14.00">SignupComponent</text>
</g>
<!-- SignupComponent&#45;&gt;AppModule -->
<g id="edge12" class="edge">
<title>SignupComponent&#45;&gt;AppModule</title>
<path fill="none" stroke="black" d="M512,-122.13C512,-142.57 512,-173 512,-173 512,-173 1357.24,-173 1357.24,-173"/>
<polygon fill="black" stroke="black" points="1357.24,-176.5 1367.24,-173 1357.24,-169.5 1357.24,-176.5"/>
</g>
<!-- UpdateNewsComponent -->
<g id="node13" class="node">
<title>UpdateNewsComponent</title>
<polygon fill="#ffffb3" stroke="black" points="433.63,-122 280.37,-122 280.37,-86 433.63,-86 433.63,-122"/>
<text text-anchor="middle" x="357" y="-99.8" font-family="Times,serif" font-size="14.00">UpdateNewsComponent</text>
</g>
<!-- UpdateNewsComponent&#45;&gt;AppModule -->
<g id="edge13" class="edge">
<title>UpdateNewsComponent&#45;&gt;AppModule</title>
<path fill="none" stroke="black" d="M357,-122.04C357,-143.66 357,-177 357,-177 357,-177 1357.11,-177 1357.11,-177"/>
<polygon fill="black" stroke="black" points="1357.11,-180.5 1367.11,-177 1357.11,-173.5 1357.11,-180.5"/>
</g>
<!-- AppComponent  -->
<g id="node17" class="node">
<title>AppComponent </title>
<polygon fill="#80b1d3" stroke="black" points="1463.44,-252 1354.56,-252 1354.56,-216 1463.44,-216 1463.44,-252"/>
<text text-anchor="middle" x="1409" y="-229.8" font-family="Times,serif" font-size="14.00">AppComponent </text>
</g>
<!-- AppModule&#45;&gt;AppComponent  -->
<g id="edge16" class="edge">
<title>AppModule&#45;&gt;AppComponent </title>
<path fill="none" stroke="black" stroke-dasharray="1,5" d="M1409,-187.11C1409,-187.11 1409,-205.99 1409,-205.99"/>
<polygon fill="black" stroke="black" points="1405.5,-205.99 1409,-215.99 1412.5,-205.99 1405.5,-205.99"/>
</g>
<!-- AppRoutingModule -->
<g id="node15" class="node">
<title>AppRoutingModule</title>
<polygon fill="#8dd3c7" stroke="black" points="256.27,-122 253.27,-126 232.27,-126 229.27,-122 127.73,-122 127.73,-86 256.27,-86 256.27,-122"/>
<text text-anchor="middle" x="192" y="-99.8" font-family="Times,serif" font-size="14.00">AppRoutingModule</text>
</g>
<!-- AppRoutingModule&#45;&gt;AppModule -->
<g id="edge14" class="edge">
<title>AppRoutingModule&#45;&gt;AppModule</title>
<path fill="none" stroke="black" d="M192,-122.01C192,-144.49 192,-180 192,-180 192,-180 1357.11,-180 1357.11,-180"/>
<polygon fill="black" stroke="black" points="1357.11,-183.5 1367.11,-180 1357.11,-176.5 1357.11,-183.5"/>
</g>
<!-- I18nModule -->
<g id="node16" class="node">
<title>I18nModule</title>
<polygon fill="#8dd3c7" stroke="black" points="109.71,-122 106.71,-126 85.71,-126 82.71,-122 24.29,-122 24.29,-86 109.71,-86 109.71,-122"/>
<text text-anchor="middle" x="67" y="-99.8" font-family="Times,serif" font-size="14.00">I18nModule</text>
</g>
<!-- I18nModule&#45;&gt;AppModule -->
<g id="edge15" class="edge">
<title>I18nModule&#45;&gt;AppModule</title>
<path fill="none" stroke="black" d="M67,-122.15C67,-145.76 67,-184 67,-184 67,-184 1356.99,-184 1356.99,-184"/>
<polygon fill="black" stroke="black" points="1356.99,-187.5 1366.99,-184 1356.99,-180.5 1356.99,-187.5"/>
</g>
<!-- AuthService -->
<g id="node18" class="node">
<title>AuthService</title>
<ellipse fill="#fdb462" stroke="black" cx="2870" cy="-104" rx="59.11" ry="18"/>
<text text-anchor="middle" x="2870" y="-99.8" font-family="Times,serif" font-size="14.00">AuthService</text>
</g>
<!-- AuthService&#45;&gt;AppModule -->
<g id="edge17" class="edge">
<title>AuthService&#45;&gt;AppModule</title>
<path fill="none" stroke="black" d="M2870,-122.15C2870,-145.76 2870,-184 2870,-184 2870,-184 1460.76,-184 1460.76,-184"/>
<polygon fill="black" stroke="black" points="1460.76,-180.5 1450.76,-184 1460.76,-187.5 1460.76,-180.5"/>
</g>
<!-- EditNewsService -->
<g id="node19" class="node">
<title>EditNewsService</title>
<ellipse fill="#fdb462" stroke="black" cx="2715" cy="-104" rx="78.14" ry="18"/>
<text text-anchor="middle" x="2715" y="-99.8" font-family="Times,serif" font-size="14.00">EditNewsService</text>
</g>
<!-- EditNewsService&#45;&gt;AppModule -->
<g id="edge18" class="edge">
<title>EditNewsService&#45;&gt;AppModule</title>
<path fill="none" stroke="black" d="M2715,-122.01C2715,-144.49 2715,-180 2715,-180 2715,-180 1460.97,-180 1460.97,-180"/>
<polygon fill="black" stroke="black" points="1460.97,-176.5 1450.97,-180 1460.97,-183.5 1460.97,-176.5"/>
</g>
<!-- RoomsService -->
<g id="node20" class="node">
<title>RoomsService</title>
<ellipse fill="#fdb462" stroke="black" cx="2552" cy="-104" rx="67.21" ry="18"/>
<text text-anchor="middle" x="2552" y="-99.8" font-family="Times,serif" font-size="14.00">RoomsService</text>
</g>
<!-- RoomsService&#45;&gt;AppModule -->
<g id="edge19" class="edge">
<title>RoomsService&#45;&gt;AppModule</title>
<path fill="none" stroke="black" d="M2552,-122.04C2552,-143.66 2552,-177 2552,-177 2552,-177 1460.69,-177 1460.69,-177"/>
<polygon fill="black" stroke="black" points="1460.69,-173.5 1450.69,-177 1460.69,-180.5 1460.69,-173.5"/>
</g>
<!-- TokenInterceptorService -->
<g id="node21" class="node">
<title>TokenInterceptorService</title>
<ellipse fill="#fdb462" stroke="black" cx="2360" cy="-104" rx="107.04" ry="18"/>
<text text-anchor="middle" x="2360" y="-99.8" font-family="Times,serif" font-size="14.00">TokenInterceptorService</text>
</g>
<!-- TokenInterceptorService&#45;&gt;AppModule -->
<g id="edge20" class="edge">
<title>TokenInterceptorService&#45;&gt;AppModule</title>
<path fill="none" stroke="black" d="M2360,-122.13C2360,-142.57 2360,-173 2360,-173 2360,-173 1460.78,-173 1460.78,-173"/>
<polygon fill="black" stroke="black" points="1460.78,-169.5 1450.78,-173 1460.78,-176.5 1460.78,-169.5"/>
</g>
</g>
</svg>
