<?xml version="1.0" encoding="UTF-8" standalone="no"?>
<!DOCTYPE svg PUBLIC "-//W3C//DTD SVG 1.1//EN"
 "http://www.w3.org/Graphics/SVG/1.1/DTD/svg11.dtd">
<!-- Generated by graphviz version 2.44.1 (20200629.0846)
 -->
<!-- Title: dependencies Pages: 1 -->
<svg width="2961pt" height="284pt"
 viewBox="0.00 0.00 2961.00 284.00" xmlns="http://www.w3.org/2000/svg" xmlns:xlink="http://www.w3.org/1999/xlink">
<g id="graph0" class="graph" transform="scale(1 1) rotate(0) translate(4 280)">
<title>dependencies</title>
<polygon fill="white" stroke="transparent" points="-4,4 -4,-280 2957,-280 2957,4 -4,4"/>
<text text-anchor="start" x="1455.51" y="-42.4" font-family="sans-serif" font-weight="bold" font-size="14.00">Legend</text>
<polygon fill="#ffffb3" stroke="transparent" points="1242.5,-10 1242.5,-30 1262.5,-30 1262.5,-10 1242.5,-10"/>
<text text-anchor="start" x="1266.13" y="-15.4" font-family="sans-serif" font-size="14.00"> &#160;Declarations</text>
<polygon fill="#8dd3c7" stroke="transparent" points="1355.5,-10 1355.5,-30 1375.5,-30 1375.5,-10 1355.5,-10"/>
<text text-anchor="start" x="1379.23" y="-15.4" font-family="sans-serif" font-size="14.00"> &#160;Module</text>
<polygon fill="#80b1d3" stroke="transparent" points="1441.5,-10 1441.5,-30 1461.5,-30 1461.5,-10 1441.5,-10"/>
<text text-anchor="start" x="1465.28" y="-15.4" font-family="sans-serif" font-size="14.00"> &#160;Bootstrap</text>
<polygon fill="#fdb462" stroke="transparent" points="1538.5,-10 1538.5,-30 1558.5,-30 1558.5,-10 1538.5,-10"/>
<text text-anchor="start" x="1562.17" y="-15.4" font-family="sans-serif" font-size="14.00"> &#160;Providers</text>
<polygon fill="#fb8072" stroke="transparent" points="1634.5,-10 1634.5,-30 1654.5,-30 1654.5,-10 1634.5,-10"/>
<text text-anchor="start" x="1658.23" y="-15.4" font-family="sans-serif" font-size="14.00"> &#160;Exports</text>
<g id="clust1" class="cluster">
<title>cluster_AppModule</title>
<polygon fill="none" stroke="black" stroke-dasharray="1,5" points="8,-70 8,-268 2945,-268 2945,-70 8,-70"/>
</g>
<g id="clust2" class="cluster">
<title>cluster_AppModule_declarations</title>
<polygon fill="none" stroke="black" points="972,-78 972,-130 2937,-130 2937,-78 972,-78"/>
</g>
<g id="clust19" class="cluster">
<title>cluster_AppModule_providers</title>
<polygon fill="none" stroke="black" points="272,-78 272,-130 964,-130 964,-78 272,-78"/>
</g>
<g id="clust16" class="cluster">
<title>cluster_AppModule_imports</title>
<polygon fill="none" stroke="black" points="16,-78 16,-130 264,-130 264,-78 16,-78"/>
</g>
<g id="clust18" class="cluster">
<title>cluster_AppModule_bootstrap</title>
<polygon fill="none" stroke="black" points="1478,-208 1478,-260 1602,-260 1602,-208 1478,-208"/>
</g>
<!-- AppComponent -->
<g id="node1" class="node">
<title>AppComponent</title>
<polygon fill="#ffffb3" stroke="black" points="2928.94,-122 2823.06,-122 2823.06,-86 2928.94,-86 2928.94,-122"/>
<text text-anchor="middle" x="2876" y="-99.8" font-family="Times,serif" font-size="14.00">AppComponent</text>
</g>
<!-- AppModule -->
<g id="node14" class="node">
<title>AppModule</title>
<polygon fill="#8dd3c7" stroke="black" points="1581.66,-187 1578.66,-191 1557.66,-191 1554.66,-187 1498.34,-187 1498.34,-151 1581.66,-151 1581.66,-187"/>
<text text-anchor="middle" x="1540" y="-164.8" font-family="Times,serif" font-size="14.00">AppModule</text>
</g>
<!-- AppComponent&#45;&gt;AppModule -->
<g id="edge1" class="edge">
<title>AppComponent&#45;&gt;AppModule</title>
<path fill="none" stroke="black" d="M2876,-122.15C2876,-145.76 2876,-184 2876,-184 2876,-184 1591.82,-184 1591.82,-184"/>
<polygon fill="black" stroke="black" points="1591.82,-180.5 1581.82,-184 1591.82,-187.5 1591.82,-180.5"/>
</g>
<!-- ArticleDialogComponent -->
<g id="node2" class="node">
<title>ArticleDialogComponent</title>
<polygon fill="#ffffb3" stroke="black" points="2805.3,-122 2646.7,-122 2646.7,-86 2805.3,-86 2805.3,-122"/>
<text text-anchor="middle" x="2726" y="-99.8" font-family="Times,serif" font-size="14.00">ArticleDialogComponent</text>
</g>
<!-- ArticleDialogComponent&#45;&gt;AppModule -->
<g id="edge2" class="edge">
<title>ArticleDialogComponent&#45;&gt;AppModule</title>
<path fill="none" stroke="black" d="M2726,-122.01C2726,-144.49 2726,-180 2726,-180 2726,-180 1591.86,-180 1591.86,-180"/>
<polygon fill="black" stroke="black" points="1591.86,-176.5 1581.86,-180 1591.86,-183.5 1591.86,-176.5"/>
</g>
<!-- EditNewsComponent -->
<g id="node3" class="node">
<title>EditNewsComponent</title>
<polygon fill="#ffffb3" stroke="black" points="2629.04,-122 2492.96,-122 2492.96,-86 2629.04,-86 2629.04,-122"/>
<text text-anchor="middle" x="2561" y="-99.8" font-family="Times,serif" font-size="14.00">EditNewsComponent</text>
</g>
<!-- EditNewsComponent&#45;&gt;AppModule -->
<g id="edge3" class="edge">
<title>EditNewsComponent&#45;&gt;AppModule</title>
<path fill="none" stroke="black" d="M2561,-122.04C2561,-143.66 2561,-177 2561,-177 2561,-177 1591.93,-177 1591.93,-177"/>
<polygon fill="black" stroke="black" points="1591.93,-173.5 1581.93,-177 1591.93,-180.5 1591.93,-173.5"/>
</g>
<!-- HomeComponent -->
<g id="node4" class="node">
<title>HomeComponent</title>
<polygon fill="#ffffb3" stroke="black" points="2474.55,-122 2359.45,-122 2359.45,-86 2474.55,-86 2474.55,-122"/>
<text text-anchor="middle" x="2417" y="-99.8" font-family="Times,serif" font-size="14.00">HomeComponent</text>
</g>
<!-- HomeComponent&#45;&gt;AppModule -->
<g id="edge4" class="edge">
<title>HomeComponent&#45;&gt;AppModule</title>
<path fill="none" stroke="black" d="M2417,-122.13C2417,-142.57 2417,-173 2417,-173 2417,-173 1591.71,-173 1591.71,-173"/>
<polygon fill="black" stroke="black" points="1591.71,-169.5 1581.71,-173 1591.71,-176.5 1591.71,-169.5"/>
</g>
<!-- IndoorDialogComponent -->
<g id="node5" class="node">
<title>IndoorDialogComponent</title>
<polygon fill="#ffffb3" stroke="black" points="2341.26,-122 2184.74,-122 2184.74,-86 2341.26,-86 2341.26,-122"/>
<text text-anchor="middle" x="2263" y="-99.8" font-family="Times,serif" font-size="14.00">IndoorDialogComponent</text>
</g>
<!-- IndoorDialogComponent&#45;&gt;AppModule -->
<g id="edge5" class="edge">
<title>IndoorDialogComponent&#45;&gt;AppModule</title>
<path fill="none" stroke="black" d="M2263,-122.11C2263,-141.34 2263,-169 2263,-169 2263,-169 1591.73,-169 1591.73,-169"/>
<polygon fill="black" stroke="black" points="1591.73,-165.5 1581.73,-169 1591.73,-172.5 1591.73,-165.5"/>
</g>
<!-- LoginComponent -->
<g id="node6" class="node">
<title>LoginComponent</title>
<polygon fill="#ffffb3" stroke="black" points="2166.28,-122 2051.72,-122 2051.72,-86 2166.28,-86 2166.28,-122"/>
<text text-anchor="middle" x="2109" y="-99.8" font-family="Times,serif" font-size="14.00">LoginComponent</text>
</g>
<!-- LoginComponent&#45;&gt;AppModule -->
<g id="edge6" class="edge">
<title>LoginComponent&#45;&gt;AppModule</title>
<path fill="none" stroke="black" d="M2109,-122.27C2109,-140.56 2109,-166 2109,-166 2109,-166 1591.84,-166 1591.84,-166"/>
<polygon fill="black" stroke="black" points="1591.84,-162.5 1581.84,-166 1591.84,-169.5 1591.84,-162.5"/>
</g>
<!-- NavbarComponent -->
<g id="node7" class="node">
<title>NavbarComponent</title>
<polygon fill="#ffffb3" stroke="black" points="2033.03,-122 1910.97,-122 1910.97,-86 2033.03,-86 2033.03,-122"/>
<text text-anchor="middle" x="1972" y="-99.8" font-family="Times,serif" font-size="14.00">NavbarComponent</text>
</g>
<!-- NavbarComponent&#45;&gt;AppModule -->
<g id="edge7" class="edge">
<title>NavbarComponent&#45;&gt;AppModule</title>
<path fill="none" stroke="black" d="M1972,-122.03C1972,-139.06 1972,-162 1972,-162 1972,-162 1591.81,-162 1591.81,-162"/>
<polygon fill="black" stroke="black" points="1591.81,-158.5 1581.81,-162 1591.81,-165.5 1591.81,-158.5"/>
</g>
<!-- NavigationComponent -->
<g id="node8" class="node">
<title>NavigationComponent</title>
<polygon fill="#ffffb3" stroke="black" points="1892.54,-122 1749.46,-122 1749.46,-86 1892.54,-86 1892.54,-122"/>
<text text-anchor="middle" x="1821" y="-99.8" font-family="Times,serif" font-size="14.00">NavigationComponent</text>
</g>
<!-- NavigationComponent&#45;&gt;AppModule -->
<g id="edge8" class="edge">
<title>NavigationComponent&#45;&gt;AppModule</title>
<path fill="none" stroke="black" d="M1821,-122.01C1821,-138.05 1821,-159 1821,-159 1821,-159 1591.77,-159 1591.77,-159"/>
<polygon fill="black" stroke="black" points="1591.77,-155.5 1581.77,-159 1591.77,-162.5 1591.77,-155.5"/>
</g>
<!-- NewsComponent -->
<g id="node9" class="node">
<title>NewsComponent</title>
<polygon fill="#ffffb3" stroke="black" points="1731.7,-122 1618.3,-122 1618.3,-86 1731.7,-86 1731.7,-122"/>
<text text-anchor="middle" x="1675" y="-99.8" font-family="Times,serif" font-size="14.00">NewsComponent</text>
</g>
<!-- NewsComponent&#45;&gt;AppModule -->
<g id="edge9" class="edge">
<title>NewsComponent&#45;&gt;AppModule</title>
<path fill="none" stroke="black" d="M1675,-122.12C1675,-136.78 1675,-155 1675,-155 1675,-155 1591.97,-155 1591.97,-155"/>
<polygon fill="black" stroke="black" points="1591.97,-151.5 1581.97,-155 1591.97,-158.5 1591.97,-151.5"/>
</g>
<!-- RoomsComponent -->
<g id="node10" class="node">
<title>RoomsComponent</title>
<polygon fill="#ffffb3" stroke="black" points="1600.5,-122 1479.5,-122 1479.5,-86 1600.5,-86 1600.5,-122"/>
<text text-anchor="middle" x="1540" y="-99.8" font-family="Times,serif" font-size="14.00">RoomsComponent</text>
</g>
<!-- RoomsComponent&#45;&gt;AppModule -->
<g id="edge10" class="edge">
<title>RoomsComponent&#45;&gt;AppModule</title>
<path fill="none" stroke="black" d="M1540,-122.11C1540,-122.11 1540,-140.99 1540,-140.99"/>
<polygon fill="black" stroke="black" points="1536.5,-140.99 1540,-150.99 1543.5,-140.99 1536.5,-140.99"/>
</g>
<!-- SelectLanguageComponent -->
<g id="node11" class="node">
<title>SelectLanguageComponent</title>
<polygon fill="#ffffb3" stroke="black" points="1461.24,-122 1290.76,-122 1290.76,-86 1461.24,-86 1461.24,-122"/>
<text text-anchor="middle" x="1376" y="-99.8" font-family="Times,serif" font-size="14.00">SelectLanguageComponent</text>
</g>
<!-- SelectLanguageComponent&#45;&gt;AppModule -->
<g id="edge11" class="edge">
<title>SelectLanguageComponent&#45;&gt;AppModule</title>
<path fill="none" stroke="black" d="M1376,-122.12C1376,-136.78 1376,-155 1376,-155 1376,-155 1488.19,-155 1488.19,-155"/>
<polygon fill="black" stroke="black" points="1488.19,-158.5 1498.19,-155 1488.19,-151.5 1488.19,-158.5"/>
</g>
<!-- SignupComponent -->
<g id="node12" class="node">
<title>SignupComponent</title>
<polygon fill="#ffffb3" stroke="black" points="1272.51,-122 1151.49,-122 1151.49,-86 1272.51,-86 1272.51,-122"/>
<text text-anchor="middle" x="1212" y="-99.8" font-family="Times,serif" font-size="14.00">SignupComponent</text>
</g>
<!-- SignupComponent&#45;&gt;AppModule -->
<g id="edge12" class="edge">
<title>SignupComponent&#45;&gt;AppModule</title>
<path fill="none" stroke="black" d="M1212,-122.01C1212,-138.05 1212,-159 1212,-159 1212,-159 1488.13,-159 1488.13,-159"/>
<polygon fill="black" stroke="black" points="1488.13,-162.5 1498.13,-159 1488.13,-155.5 1488.13,-162.5"/>
</g>
<!-- UpdateNewsComponent -->
<g id="node13" class="node">
<title>UpdateNewsComponent</title>
<polygon fill="#ffffb3" stroke="black" points="1133.63,-122 980.37,-122 980.37,-86 1133.63,-86 1133.63,-122"/>
<text text-anchor="middle" x="1057" y="-99.8" font-family="Times,serif" font-size="14.00">UpdateNewsComponent</text>
</g>
<!-- UpdateNewsComponent&#45;&gt;AppModule -->
<g id="edge13" class="edge">
<title>UpdateNewsComponent&#45;&gt;AppModule</title>
<path fill="none" stroke="black" d="M1057,-122.03C1057,-139.06 1057,-162 1057,-162 1057,-162 1487.98,-162 1487.98,-162"/>
<polygon fill="black" stroke="black" points="1487.98,-165.5 1497.98,-162 1487.98,-158.5 1487.98,-165.5"/>
</g>
<!-- AppComponent  -->
<g id="node17" class="node">
<title>AppComponent </title>
<polygon fill="#80b1d3" stroke="black" points="1594.44,-252 1485.56,-252 1485.56,-216 1594.44,-216 1594.44,-252"/>
<text text-anchor="middle" x="1540" y="-229.8" font-family="Times,serif" font-size="14.00">AppComponent </text>
</g>
<!-- AppModule&#45;&gt;AppComponent  -->
<g id="edge16" class="edge">
<title>AppModule&#45;&gt;AppComponent </title>
<path fill="none" stroke="black" stroke-dasharray="1,5" d="M1540,-187.11C1540,-187.11 1540,-205.99 1540,-205.99"/>
<polygon fill="black" stroke="black" points="1536.5,-205.99 1540,-215.99 1543.5,-205.99 1536.5,-205.99"/>
</g>
<!-- AppRoutingModule -->
<g id="node15" class="node">
<title>AppRoutingModule</title>
<polygon fill="#8dd3c7" stroke="black" points="256.27,-122 253.27,-126 232.27,-126 229.27,-122 127.73,-122 127.73,-86 256.27,-86 256.27,-122"/>
<text text-anchor="middle" x="192" y="-99.8" font-family="Times,serif" font-size="14.00">AppRoutingModule</text>
</g>
<!-- AppRoutingModule&#45;&gt;AppModule -->
<g id="edge14" class="edge">
<title>AppRoutingModule&#45;&gt;AppModule</title>
<path fill="none" stroke="black" d="M192,-122.01C192,-144.49 192,-180 192,-180 192,-180 1488.18,-180 1488.18,-180"/>
<polygon fill="black" stroke="black" points="1488.18,-183.5 1498.18,-180 1488.18,-176.5 1488.18,-183.5"/>
</g>
<!-- I18nModule -->
<g id="node16" class="node">
<title>I18nModule</title>
<polygon fill="#8dd3c7" stroke="black" points="109.71,-122 106.71,-126 85.71,-126 82.71,-122 24.29,-122 24.29,-86 109.71,-86 109.71,-122"/>
<text text-anchor="middle" x="67" y="-99.8" font-family="Times,serif" font-size="14.00">I18nModule</text>
</g>
<!-- I18nModule&#45;&gt;AppModule -->
<g id="edge15" class="edge">
<title>I18nModule&#45;&gt;AppModule</title>
<path fill="none" stroke="black" d="M67,-122.15C67,-145.76 67,-184 67,-184 67,-184 1488.29,-184 1488.29,-184"/>
<polygon fill="black" stroke="black" points="1488.29,-187.5 1498.29,-184 1488.29,-180.5 1488.29,-187.5"/>
</g>
<!-- AuthService -->
<g id="node18" class="node">
<title>AuthService</title>
<ellipse fill="#fdb462" stroke="black" cx="897" cy="-104" rx="59.11" ry="18"/>
<text text-anchor="middle" x="897" y="-99.8" font-family="Times,serif" font-size="14.00">AuthService</text>
</g>
<!-- AuthService&#45;&gt;AppModule -->
<g id="edge17" class="edge">
<title>AuthService&#45;&gt;AppModule</title>
<path fill="none" stroke="black" d="M897,-122.27C897,-140.56 897,-166 897,-166 897,-166 1488.31,-166 1488.31,-166"/>
<polygon fill="black" stroke="black" points="1488.31,-169.5 1498.31,-166 1488.31,-162.5 1488.31,-169.5"/>
</g>
<!-- EditNewsService -->
<g id="node19" class="node">
<title>EditNewsService</title>
<ellipse fill="#fdb462" stroke="black" cx="742" cy="-104" rx="78.14" ry="18"/>
<text text-anchor="middle" x="742" y="-99.8" font-family="Times,serif" font-size="14.00">EditNewsService</text>
</g>
<!-- EditNewsService&#45;&gt;AppModule -->
<g id="edge18" class="edge">
<title>EditNewsService&#45;&gt;AppModule</title>
<path fill="none" stroke="black" d="M742,-122.11C742,-141.34 742,-169 742,-169 742,-169 1488.22,-169 1488.22,-169"/>
<polygon fill="black" stroke="black" points="1488.22,-172.5 1498.22,-169 1488.22,-165.5 1488.22,-172.5"/>
</g>
<!-- RoomsService -->
<g id="node20" class="node">
<title>RoomsService</title>
<ellipse fill="#fdb462" stroke="black" cx="579" cy="-104" rx="67.21" ry="18"/>
<text text-anchor="middle" x="579" y="-99.8" font-family="Times,serif" font-size="14.00">RoomsService</text>
</g>
<!-- RoomsService&#45;&gt;AppModule -->
<g id="edge19" class="edge">
<title>RoomsService&#45;&gt;AppModule</title>
<path fill="none" stroke="black" d="M579,-122.13C579,-142.57 579,-173 579,-173 579,-173 1488.09,-173 1488.09,-173"/>
<polygon fill="black" stroke="black" points="1488.09,-176.5 1498.09,-173 1488.09,-169.5 1488.09,-176.5"/>
</g>
<!-- TokenInterceptorService -->
<g id="node21" class="node">
<title>TokenInterceptorService</title>
<ellipse fill="#fdb462" stroke="black" cx="387" cy="-104" rx="107.04" ry="18"/>
<text text-anchor="middle" x="387" y="-99.8" font-family="Times,serif" font-size="14.00">TokenInterceptorService</text>
</g>
<!-- TokenInterceptorService&#45;&gt;AppModule -->
<g id="edge20" class="edge">
<title>TokenInterceptorService&#45;&gt;AppModule</title>
<path fill="none" stroke="black" d="M387,-122.04C387,-143.66 387,-177 387,-177 387,-177 1488.28,-177 1488.28,-177"/>
<polygon fill="black" stroke="black" points="1488.28,-180.5 1498.28,-177 1488.28,-173.5 1488.28,-180.5"/>
</g>
</g>
</svg>
